<svg width="251" height="227" viewBox="0 0 251 227" fill="none" xmlns="http://www.w3.org/2000/svg">
<path d="M78.0918 212H172.08L172.014 211.909H239.007L250.443 226.909H191V227H60V226.909H0L11.4727 211.909H78.1582L78.0918 212ZM103.787 177H146.385L146.318 176.909H212.32L224.52 192.909H191V193H76V192.909H26.0049L38.2422 176.909H103.854L103.787 177ZM124.003 77.335H126.169L131.563 69.9092H196.413L163.938 113.455L197.833 157.909H132.37L126.169 149.463H124.003L117.802 157.909H52.7744L86.7754 113.455L54.0928 69.9092H118.635L124.003 77.335ZM93.3965 35H156.923L156.989 34.9092H222.515L210.583 50.9092H191V51H76V50.9092H39.833L27.8242 34.9092H93.3311L93.3965 35ZM236.684 15.9092H213V16H54V15.9092H13.5645L1.62402 0H248.548L236.684 15.9092Z" fill="#009616"/>
</svg>
