<svg width="415" height="415" viewBox="0 0 415 415" fill="none" xmlns="http://www.w3.org/2000/svg">
<path d="M207.5 0C322.099 0 415 92.9009 415 207.5C415 322.099 322.099 415 207.5 415C92.9009 415 0 322.099 0 207.5C0 92.9009 92.9009 0 207.5 0ZM93.4727 305.909L82 320.909H142V321H273V320.909H332.443L321.007 305.909H254.014L254.08 306H160.092L160.158 305.909H93.4727ZM120.242 270.909L108.005 286.909H158V287H273V286.909H306.52L294.32 270.909H228.318L228.385 271H185.787L185.854 270.909H120.242ZM136.093 163.909L168.775 207.455L134.774 251.909H199.802L206.003 243.463H208.169L214.37 251.909H279.833L245.938 207.455L278.413 163.909H213.563L208.169 171.335H206.003L200.635 163.909H136.093ZM109.824 128.909L121.833 144.909H158V145H273V144.909H292.583L304.515 128.909H238.989L238.923 129H175.396L175.331 128.909H109.824ZM83.624 94L95.5645 109.909H136V110H295V109.909H318.684L330.548 94H83.624Z" fill="black"/>
</svg>
