<svg width="1400" height="1400" viewBox="0 0 1400 1400" fill="none" xmlns="http://www.w3.org/2000/svg">
<rect width="1400" height="1400" fill="#CAFFB1"/>
<path d="M699.5 478C814.099 478 907 570.901 907 685.5C907 800.099 814.099 893 699.5 893C584.901 893 492 800.099 492 685.5C492 570.901 584.901 478 699.5 478ZM585.473 783.909L574 798.909H634V799H765V798.909H824.443L813.007 783.909H746.014L746.08 784H652.092L652.158 783.909H585.473ZM612.242 748.909L600.005 764.909H650V765H765V764.909H798.52L786.32 748.909H720.318L720.385 749H677.787L677.854 748.909H612.242ZM628.093 641.909L660.775 685.455L626.774 729.909H691.802L698.003 721.463H700.169L706.37 729.909H771.833L737.938 685.455L770.413 641.909H705.563L700.169 649.335H698.003L692.635 641.909H628.093ZM601.824 606.909L613.833 622.909H650V623H765V622.909H784.583L796.515 606.909H730.989L730.923 607H667.396L667.331 606.909H601.824ZM575.624 572L587.564 587.909H628V588H787V587.909H810.684L822.548 572H575.624Z" fill="black"/>
</svg>
