<svg width="353" height="350" viewBox="0 0 353 350" fill="none" xmlns="http://www.w3.org/2000/svg">
<path d="M352.118 176.073C352.118 78.8222 273.295 0 176.059 0C78.8222 0 0 78.8222 0 176.073C0 263.934 64.3842 336.77 148.547 349.975V226.959H103.854V176.059H148.547V137.279C148.547 93.1429 174.841 68.7714 215.044 68.7714C234.31 68.7714 254.455 72.2048 254.455 72.2048V115.534H232.27C210.408 115.534 203.585 129.106 203.585 143.03V176.073H252.416L244.61 226.973H203.585V349.99C287.748 336.785 352.132 263.949 352.132 176.073H352.118Z" fill="black"/>
</svg>
