<svg width="251" height="227" viewBox="0 0 251 227" fill="none" xmlns="http://www.w3.org/2000/svg">
<path d="M67.7021 226.909H0.556641L12.0293 211.909H78.7148L67.7021 226.909ZM251 226.909H183.583L172.57 211.909H239.563L251 226.909ZM92.6641 192.909H26.5615L38.7988 176.909H104.41L92.6641 192.909ZM225.076 192.909H158.621L146.875 176.909H212.877L225.076 192.909ZM124.56 77.335H126.726L132.12 69.9092H196.97L164.495 113.455L198.39 157.909H132.927L126.726 149.463H124.56L118.358 157.909H53.3311L87.332 113.455L54.6494 69.9092H119.191L124.56 77.335ZM105.455 50.9092H40.3896L28.3809 34.9092H93.8877L105.455 50.9092ZM211.14 50.9092H145.923L157.546 34.9092H223.071L211.14 50.9092ZM80.1523 15.9092H14.1211L2.18066 0H68.6504L80.1523 15.9092ZM237.24 15.9092H171.349L182.906 0H249.104L237.24 15.9092Z" fill="#62C902"/>
</svg>
