<svg width="251" height="227" viewBox="0 0 251 227" fill="none" xmlns="http://www.w3.org/2000/svg">
<path d="M67.1455 226.909H0L11.4727 211.909H78.1582L67.1455 226.909ZM250.443 226.909H183.026L172.014 211.909H239.007L250.443 226.909ZM92.1074 192.909H26.0049L38.2422 176.909H103.854L92.1074 192.909ZM224.52 192.909H158.064L146.318 176.909H212.32L224.52 192.909ZM124.003 77.335H126.169L131.563 69.9092H196.413L163.938 113.455L197.833 157.909H132.37L126.169 149.463H124.003L117.802 157.909H52.7744L86.7754 113.455L54.0928 69.9092H118.635L124.003 77.335ZM104.898 50.9092H39.833L27.8242 34.9092H93.3311L104.898 50.9092ZM210.583 50.9092H145.366L156.989 34.9092H222.515L210.583 50.9092ZM79.5957 15.9092H13.5645L1.62402 0H68.0938L79.5957 15.9092ZM236.684 15.9092H170.792L182.35 0H248.548L236.684 15.9092Z" fill="#3A413C"/>
</svg>
