<svg width="353" height="353" viewBox="0 0 353 353" fill="none" xmlns="http://www.w3.org/2000/svg">
<path d="M176.884 0.788086C129.021 0.788086 123.056 1.0192 104.325 1.8116C85.5167 2.73606 72.7943 5.65252 61.5687 10.0107C49.9909 14.545 40.1299 20.565 30.3901 30.3599C20.5842 40.0998 14.5091 49.9607 10.0409 61.5385C5.6827 72.7641 2.76624 85.4865 1.84178 104.295C0.994356 123.037 0.818268 128.991 0.818268 176.854C0.818268 224.717 1.04938 230.682 1.84178 249.414C2.76624 268.167 5.6827 280.944 10.0409 292.17C14.5752 303.748 20.5952 313.609 30.3901 323.349C40.1299 333.154 49.9909 339.23 61.5687 343.698C72.7943 348.001 85.5717 350.972 104.325 351.897C123.067 352.744 129.021 352.92 176.884 352.92C224.747 352.92 230.712 352.689 249.444 351.897C268.197 350.972 280.975 347.99 292.2 343.698C303.778 339.163 313.639 333.143 323.379 323.349C333.185 313.609 339.26 303.803 343.728 292.17C348.031 280.944 351.003 268.167 351.927 249.414C352.774 230.671 352.951 224.717 352.951 176.854C352.951 128.991 352.719 123.026 351.927 104.295C351.003 85.5415 348.02 72.6981 343.728 61.5385C339.194 49.9607 333.174 40.0998 323.379 30.3599C313.639 20.554 303.833 14.4789 292.2 10.0107C280.975 5.65252 268.197 2.73606 249.444 1.8116C230.701 0.964174 224.747 0.788086 176.884 0.788086ZM176.884 32.484C223.889 32.484 229.502 32.7151 248.079 33.5075C265.215 34.3109 274.547 37.1723 280.743 39.5935C289.009 42.7961 294.786 46.582 301.038 52.7671C307.168 58.8972 310.954 64.7411 314.156 73.0062C316.577 79.2023 319.439 88.535 320.242 105.671C321.035 124.248 321.266 129.872 321.266 176.865C321.266 223.859 321.035 229.483 320.176 248.06C319.252 265.195 316.39 274.528 313.98 280.724C310.645 288.989 306.925 294.767 300.784 301.018C294.588 307.148 288.689 310.934 280.49 314.137C274.371 316.558 264.906 319.42 247.705 320.223C229.028 321.015 223.526 321.247 176.4 321.247C129.275 321.247 123.783 321.015 105.084 320.157C87.9489 319.232 78.4952 316.371 72.2991 313.961C63.9349 310.626 58.201 306.906 52.0599 300.765C45.8638 294.569 41.9238 288.67 38.8863 280.471C36.4211 274.352 33.6037 264.887 32.6902 247.686C32.0629 229.229 31.7658 223.507 31.7658 176.601C31.7658 129.718 32.0629 123.984 32.6902 105.296C33.6037 88.0948 36.4211 78.6521 38.8863 72.511C41.9238 64.1358 45.8748 58.4129 52.0599 52.2168C58.19 46.0868 63.9349 42.1248 72.2991 39.0212C78.4952 36.611 87.7178 33.7496 104.919 32.8912C123.596 32.2198 129.098 31.9777 176.158 31.9777L176.884 32.484ZM176.884 86.488C126.908 86.488 86.4962 126.955 86.4962 176.876C86.4962 226.852 126.963 267.264 176.884 267.264C226.86 267.264 267.273 226.797 267.273 176.876C267.273 126.9 226.805 86.488 176.884 86.488ZM176.884 235.569C144.44 235.569 118.192 209.32 118.192 176.876C118.192 144.432 144.44 118.184 176.884 118.184C209.329 118.184 235.577 144.432 235.577 176.876C235.577 209.32 209.329 235.569 176.884 235.569ZM292.046 82.8782C292.046 94.577 282.526 104.02 270.882 104.02C259.184 104.02 249.741 94.566 249.741 82.8782C249.741 71.2454 259.25 61.7806 270.882 61.7806C282.515 61.7806 292.046 71.2454 292.046 82.8782Z" fill="black"/>
</svg>
