<svg width="353" height="287" viewBox="0 0 353 287" fill="none" xmlns="http://www.w3.org/2000/svg">
<path d="M352.132 33.8857C339.183 39.6238 325.272 43.5009 310.647 45.2533C325.566 36.3205 337.012 22.1459 342.409 5.27284C328.451 13.5543 312.989 19.5715 296.535 22.7973C283.353 8.77772 264.588 0 243.807 0C203.919 0 171.569 32.3504 171.569 72.2689C171.569 77.9139 172.22 83.4039 173.43 88.7077C113.366 85.6836 60.1568 56.9156 24.5187 13.2131C18.3153 23.9139 14.7484 36.3205 14.7484 49.5336C14.7484 74.5951 27.5118 96.7255 46.8817 109.675C35.0333 109.287 23.8983 106.046 14.1591 100.634V101.564C14.1591 136.566 39.05 165.769 72.1138 172.406C66.0345 174.05 59.6606 174.918 53.085 174.918C48.4325 174.918 43.8886 174.484 39.4842 173.647C48.6807 202.337 75.355 223.242 106.977 223.801C82.2407 243.186 51.0845 254.74 17.2452 254.74C11.4141 254.74 5.66051 254.399 0 253.732C31.9782 274.249 69.9426 286.191 110.73 286.191C243.636 286.191 316.292 176.113 316.292 80.6434C316.292 77.5417 316.215 74.409 316.075 71.3074C330.188 61.1029 342.44 48.4015 352.101 33.9323L352.132 33.8857Z" fill="black"/>
</svg>
