<svg width="353" height="353" viewBox="0 0 353 353" fill="none" xmlns="http://www.w3.org/2000/svg">
<path d="M299.391 51.1692C266.457 18.1568 222.598 0 175.988 0C79.78 0 1.49342 78.2865 1.49342 174.494C1.49342 205.227 9.51072 235.253 24.7593 261.741L0 352.132L92.5133 327.845C117.98 341.757 146.669 349.067 175.909 349.067H175.988C272.116 349.067 352.132 270.78 352.132 174.573C352.132 127.962 332.325 84.1816 299.391 51.1692ZM175.988 319.67C149.892 319.67 124.347 312.675 102.103 299.47L96.8364 296.326L41.9729 310.71L56.5927 257.182L53.1342 251.68C38.5931 228.572 30.9688 201.926 30.9688 174.494C30.9688 94.5569 96.0504 29.4754 176.066 29.4754C214.816 29.4754 251.209 44.5667 278.562 71.9985C305.915 99.4302 322.735 135.822 322.657 174.573C322.657 254.588 255.925 319.67 175.988 319.67ZM255.532 211.044C251.209 208.843 229.751 198.31 225.742 196.895C221.733 195.402 218.825 194.695 215.917 199.096C213.009 203.498 204.677 213.244 202.083 216.231C199.568 219.139 196.974 219.532 192.651 217.332C167.027 204.52 150.206 194.459 133.307 165.455C128.827 157.752 137.787 158.302 146.119 141.639C147.534 138.731 146.827 136.215 145.726 134.015C144.626 131.814 135.901 110.356 132.285 101.631C128.748 93.1421 125.133 94.3211 122.46 94.1639C119.945 94.0067 117.037 94.0067 114.129 94.0067C111.22 94.0067 106.504 95.1071 102.496 99.4302C98.487 103.832 87.2471 114.364 87.2471 135.822C87.2471 157.281 102.889 178.031 105.011 180.939C107.212 183.848 135.744 227.864 179.525 246.807C207.192 258.754 218.039 259.776 231.873 257.733C240.283 256.475 257.654 247.2 261.27 236.982C264.885 226.764 264.885 218.039 263.785 216.231C262.763 214.266 259.855 213.166 255.532 211.044Z" fill="black"/>
</svg>
