<svg width="598" height="233" viewBox="0 0 598 233" fill="none" xmlns="http://www.w3.org/2000/svg">
<path d="M78.0918 215.422H172.08L172.014 215.331H239.007L250.443 230.331H191V230.422H60V230.331H0L11.4727 215.331H78.1582L78.0918 215.422ZM103.787 180.422H146.385L146.318 180.331H212.32L224.52 196.331H191V196.422H76V196.331H26.0049L38.2422 180.331H103.854L103.787 180.422ZM124.003 80.7568H126.169L131.563 73.3311H196.413L163.938 116.877L197.833 161.331H132.37L126.169 152.885H124.003L117.802 161.331H52.7744L86.7754 116.877L54.0928 73.3311H118.635L124.003 80.7568ZM93.3965 38.4219H156.923L156.989 38.3311H222.515L210.583 54.3311H191V54.4219H76V54.3311H39.833L27.8242 38.3311H93.3311L93.3965 38.4219ZM236.684 19.3311H213V19.4219H54V19.3311H13.5645L1.62402 3.42188H248.548L236.684 19.3311Z" fill="#009616"/>
<path d="M516 233C498.952 233 484.299 229.502 472.041 222.507C459.854 215.44 450.449 205.618 443.827 193.04C437.276 180.392 434 165.729 434 149.053C434 132.306 437.276 117.644 443.827 105.066C450.449 92.417 459.854 82.5949 472.041 75.5994C484.299 68.5331 498.952 65 516 65C533.048 65 547.666 68.5331 559.853 75.5994C572.111 82.5949 581.515 92.417 588.067 105.066C594.689 117.644 598 132.306 598 149.053C598 165.729 594.689 180.392 588.067 193.04C581.515 205.618 572.111 215.44 559.853 222.507C547.666 229.502 533.048 233 516 233ZM516.317 193.888C522.516 193.888 527.765 191.98 532.062 188.165C536.359 184.349 539.635 179.049 541.889 172.266C544.214 165.482 545.376 157.638 545.376 148.735C545.376 139.69 544.214 131.776 541.889 124.992C539.635 118.209 536.359 112.909 532.062 109.093C527.765 105.278 522.516 103.37 516.317 103.37C509.906 103.37 504.482 105.278 500.044 109.093C495.676 112.909 492.33 118.209 490.005 124.992C487.751 131.776 486.624 139.69 486.624 148.735C486.624 157.638 487.751 165.482 490.005 172.266C492.33 179.049 495.676 184.349 500.044 188.165C504.482 191.98 509.906 193.888 516.317 193.888Z" fill="#009616"/>
<path d="M267.633 231V68.3896H319.261V231H267.633ZM293.5 49.4395C286.25 49.4395 280.021 47.0399 274.813 42.2406C269.604 37.3708 267 31.5128 267 24.6668C267 17.8914 269.604 12.104 274.813 7.30478C280.021 2.43493 286.25 0 293.5 0C300.82 0 307.049 2.43493 312.187 7.30478C317.396 12.104 320 17.8914 320 24.6668C320 31.5128 317.396 37.3708 312.187 42.2406C307.049 47.0399 300.82 49.4395 293.5 49.4395Z" fill="#009616"/>
<path d="M404.461 66.2959H433.715V104.316H404.512V231.234H352.764V104.316H331.377V66.2959H352.816V27.4307H404.461V66.2959Z" fill="#009616"/>
</svg>
