<svg width="617" height="234" viewBox="0 0 617 234" fill="none" xmlns="http://www.w3.org/2000/svg">
<path d="M67.1455 229.872H0L11.4727 214.872H78.1582L67.1455 229.872ZM250.443 229.872H183.026L172.014 214.872H239.007L250.443 229.872ZM92.1074 195.872H26.0049L38.2422 179.872H103.854L92.1074 195.872ZM224.52 195.872H158.064L146.318 179.872H212.32L224.52 195.872ZM124.003 80.298H126.169L131.563 72.8722H196.413L163.938 116.418L197.833 160.872H132.37L126.169 152.426H124.003L117.802 160.872H52.7744L86.7754 116.418L54.0928 72.8722H118.635L124.003 80.298ZM104.898 53.8722H39.833L27.8242 37.8722H93.3311L104.898 53.8722ZM210.583 53.8722H145.366L156.989 37.8722H222.515L210.583 53.8722ZM79.5957 18.8722H13.5645L1.62402 2.96301H68.0938L79.5957 18.8722ZM236.684 18.8722H170.792L182.35 2.96301H248.548L236.684 18.8722Z" fill="#3A413C"/>
<path d="M513.943 233.196C492.915 233.196 474.73 229.54 459.387 222.227C444.135 214.841 432.357 204.574 424.054 191.426C415.751 178.205 411.6 162.878 411.6 145.446C411.6 127.867 415.751 112.503 424.054 99.3552C432.357 86.1336 444.135 75.8665 459.387 68.554C474.73 61.1677 492.915 57.4745 513.943 57.4745C534.971 57.4745 553.112 61.1677 568.364 68.554C583.706 75.8665 595.529 86.1336 603.832 99.3552C612.135 112.503 616.286 127.867 616.286 145.446C616.286 162.878 612.135 178.205 603.832 191.426C595.529 204.574 583.706 214.841 568.364 222.227C553.112 229.54 534.971 233.196 513.943 233.196ZM514.214 196.634C523.78 196.634 531.767 194.418 538.175 189.986C544.583 185.48 549.411 179.349 552.66 171.594C556 163.838 557.669 155.011 557.669 145.114C557.669 135.216 556 126.389 552.66 118.634C549.411 110.878 544.583 104.747 538.175 100.242C531.767 95.7358 523.78 93.483 514.214 93.483C504.557 93.483 496.435 95.7358 489.846 100.242C483.348 104.747 478.43 110.878 475.091 118.634C471.842 126.389 470.217 135.216 470.217 145.114C470.217 155.011 471.842 163.838 475.091 171.594C478.43 179.349 483.348 185.48 489.846 189.986C496.435 194.418 504.557 196.634 514.214 196.634Z" fill="#62C902"/>
<path d="M422.782 59.6904V95.1449H297.56V59.6904H422.782ZM325.989 18.9177H383.659V177.577C383.659 181.935 384.471 185.332 386.095 187.77C387.72 190.134 389.976 191.796 392.864 192.756C395.842 193.716 399.272 194.196 403.152 194.196C405.86 194.196 408.567 194.011 411.275 193.642C413.982 193.199 416.058 192.867 417.502 192.645L426.572 227.767C423.684 228.506 419.623 229.355 414.389 230.315C409.154 231.349 402.791 231.977 395.301 232.199C381.402 232.642 369.219 231.128 358.75 227.656C348.371 224.185 340.293 218.793 334.517 211.48C328.741 204.168 325.899 194.935 325.989 183.781V18.9177Z" fill="#62C902"/>
<path d="M246.436 229.872V59.6903H304.106V229.872H246.436ZM275.406 47.7528C266.832 47.7528 259.477 45.4261 253.34 40.7727C247.293 36.0455 244.27 30.3949 244.27 23.821C244.27 17.321 247.293 11.7443 253.34 7.09092C259.477 2.36364 266.832 0 275.406 0C283.98 0 291.29 2.36364 297.337 7.09092C303.474 11.7443 306.542 17.321 306.542 23.821C306.542 30.3949 303.474 36.0455 297.337 40.7727C291.29 45.4261 283.98 47.7528 275.406 47.7528Z" fill="#62C902"/>
</svg>
